<?xml version="1.0" encoding="utf-8"?>
<COLLADA xmlns="http://www.collada.org/2005/11/COLLADASchema" version="1.4.1">
  <asset>
    <created>2026-02-13T00:00:00</created>
    <modified>2026-02-13T00:00:00</modified>
  </asset>
  <library_geometries>
    <!-- Body cylinder -->
    <geometry id="body_mesh" name="body_mesh">
      <mesh>
        <source id="body-positions">
          <float_array id="body-positions-array" count="144">
            <!-- Simplified cylinder vertices for body -->
            0.2 0 0.4  0.17 0.1 0.4  0.1 0.17 0.4  0 0.2 0.4  -0.1 0.17 0.4  -0.17 0.1 0.4  -0.2 0 0.4  -0.17 -0.1 0.4  -0.1 -0.17 0.4  0 -0.2 0.4  0.1 -0.17 0.4  0.17 -0.1 0.4
            0.2 0 1.3  0.17 0.1 1.3  0.1 0.17 1.3  0 0.2 1.3  -0.1 0.17 1.3  -0.17 0.1 1.3  -0.2 0 1.3  -0.17 -0.1 1.3  -0.1 -0.17 1.3  0 -0.2 1.3  0.1 -0.17 1.3  0.17 -0.1 1.3
            <!-- Head sphere center -->
            0.15 0 1.55  0.11 0.11 1.55  0 0.15 1.55  -0.11 0.11 1.55  -0.15 0 1.55  -0.11 -0.11 1.55  0 -0.15 1.55  0.11 -0.11 1.55
            0.15 0 1.7  0.11 0.11 1.7  0 0.15 1.7  -0.11 0.11 1.7  -0.15 0 1.7  -0.11 -0.11 1.7  0 -0.15 1.7  0.11 -0.11 1.7
            <!-- Legs box -->
            -0.075 -0.15 0  0.075 -0.15 0  0.075 0.15 0  -0.075 0.15 0
            -0.075 -0.15 0.6  0.075 -0.15 0.6  0.075 0.15 0.6  -0.075 0.15 0.6
          </float_array>
          <technique_common>
            <accessor source="#body-positions-array" count="48" stride="3">
              <param name="X" type="float"/>
              <param name="Y" type="float"/>
              <param name="Z" type="float"/>
            </accessor>
          </technique_common>
        </source>
        <vertices id="body-vertices">
          <input semantic="POSITION" source="#body-positions"/>
        </vertices>
        <triangles count="96">
          <input semantic="VERTEX" source="#body-vertices" offset="0"/>
          <p>
            <!-- Body cylinder sides -->
            0 1 13 0 13 12  1 2 14 1 14 13  2 3 15 2 15 14  3 4 16 3 16 15
            4 5 17 4 17 16  5 6 18 5 18 17  6 7 19 6 19 18  7 8 20 7 20 19
            8 9 21 8 21 20  9 10 22 9 22 21  10 11 23 10 23 22  11 0 12 11 12 23
            <!-- Head sphere approximation -->
            24 25 33 24 33 32  25 26 34 25 34 33  26 27 35 26 35 34  27 28 36 27 36 35
            28 29 37 28 37 36  29 30 38 29 38 37  30 31 39 30 39 38  31 24 32 31 32 39
            <!-- Legs box -->
            40 41 42 40 42 43  44 47 46 44 46 45  40 44 45 40 45 41
            41 45 46 41 46 42  42 46 47 42 47 43  44 40 43 44 43 47
          </p>
        </triangles>
      </mesh>
    </geometry>
  </library_geometries>
  <library_visual_scenes>
    <visual_scene id="Scene" name="Scene">
      <node id="Person" name="Person">
        <instance_geometry url="#body_mesh"/>
      </node>
    </visual_scene>
  </library_visual_scenes>
  <scene>
    <instance_visual_scene url="#Scene"/>
  </scene>
</COLLADA>
